<mxfile host="app.diagrams.net" agent="Mozilla/5.0 (Windows NT 10.0; Win64; x64) AppleWebKit/537.36 (KHTML, like Gecko) Chrome/138.0.0.0 Safari/537.36" version="28.0.7">
  <diagram name="Page-1" id="A3NJGmJDaoIs_opcloOI">
    <mxGraphModel dx="1042" dy="527" grid="1" gridSize="10" guides="1" tooltips="1" connect="1" arrows="1" fold="1" page="1" pageScale="1" pageWidth="827" pageHeight="1169" math="0" shadow="0">
      <root>
        <mxCell id="0" />
        <mxCell id="1" parent="0" />
        <mxCell id="aNlcNVNQjMSgE416b1j--8" value="" style="edgeStyle=orthogonalEdgeStyle;rounded=0;orthogonalLoop=1;jettySize=auto;html=1;" edge="1" parent="1" source="aNlcNVNQjMSgE416b1j--1" target="aNlcNVNQjMSgE416b1j--2">
          <mxGeometry relative="1" as="geometry" />
        </mxCell>
        <mxCell id="aNlcNVNQjMSgE416b1j--1" value="&lt;b&gt;&lt;font style=&quot;font-size: 18px;&quot;&gt;Plan&lt;/font&gt;&lt;/b&gt;" style="rounded=1;whiteSpace=wrap;html=1;" vertex="1" parent="1">
          <mxGeometry x="300" y="20" width="120" height="60" as="geometry" />
        </mxCell>
        <mxCell id="aNlcNVNQjMSgE416b1j--9" value="" style="edgeStyle=orthogonalEdgeStyle;rounded=0;orthogonalLoop=1;jettySize=auto;html=1;" edge="1" parent="1" source="aNlcNVNQjMSgE416b1j--2" target="aNlcNVNQjMSgE416b1j--3">
          <mxGeometry relative="1" as="geometry" />
        </mxCell>
        <mxCell id="aNlcNVNQjMSgE416b1j--2" value="&lt;font size=&quot;3&quot;&gt;&lt;b&gt;Develop&lt;/b&gt;&lt;/font&gt;" style="rounded=1;whiteSpace=wrap;html=1;" vertex="1" parent="1">
          <mxGeometry x="300" y="150" width="120" height="60" as="geometry" />
        </mxCell>
        <mxCell id="aNlcNVNQjMSgE416b1j--10" value="" style="edgeStyle=orthogonalEdgeStyle;rounded=0;orthogonalLoop=1;jettySize=auto;html=1;" edge="1" parent="1" source="aNlcNVNQjMSgE416b1j--3" target="aNlcNVNQjMSgE416b1j--4">
          <mxGeometry relative="1" as="geometry" />
        </mxCell>
        <mxCell id="aNlcNVNQjMSgE416b1j--3" value="&lt;font style=&quot;font-size: 18px;&quot;&gt;&lt;b&gt;Build&lt;/b&gt;&lt;/font&gt;" style="rounded=1;whiteSpace=wrap;html=1;" vertex="1" parent="1">
          <mxGeometry x="300" y="280" width="120" height="60" as="geometry" />
        </mxCell>
        <mxCell id="aNlcNVNQjMSgE416b1j--6" value="" style="edgeStyle=orthogonalEdgeStyle;rounded=0;orthogonalLoop=1;jettySize=auto;html=1;" edge="1" parent="1" source="aNlcNVNQjMSgE416b1j--4" target="aNlcNVNQjMSgE416b1j--5">
          <mxGeometry relative="1" as="geometry" />
        </mxCell>
        <mxCell id="aNlcNVNQjMSgE416b1j--4" value="&lt;font size=&quot;3&quot;&gt;&lt;b&gt;Test&lt;/b&gt;&lt;/font&gt;" style="rounded=1;whiteSpace=wrap;html=1;" vertex="1" parent="1">
          <mxGeometry x="300" y="400" width="120" height="60" as="geometry" />
        </mxCell>
        <mxCell id="aNlcNVNQjMSgE416b1j--11" value="" style="edgeStyle=orthogonalEdgeStyle;rounded=0;orthogonalLoop=1;jettySize=auto;html=1;" edge="1" parent="1" source="aNlcNVNQjMSgE416b1j--5" target="aNlcNVNQjMSgE416b1j--7">
          <mxGeometry relative="1" as="geometry" />
        </mxCell>
        <mxCell id="aNlcNVNQjMSgE416b1j--5" value="&lt;font size=&quot;3&quot;&gt;&lt;b&gt;Relese&lt;/b&gt;&lt;/font&gt;" style="rounded=1;whiteSpace=wrap;html=1;" vertex="1" parent="1">
          <mxGeometry x="300" y="525" width="120" height="60" as="geometry" />
        </mxCell>
        <mxCell id="aNlcNVNQjMSgE416b1j--14" value="" style="edgeStyle=orthogonalEdgeStyle;rounded=0;orthogonalLoop=1;jettySize=auto;html=1;" edge="1" parent="1" source="aNlcNVNQjMSgE416b1j--7" target="aNlcNVNQjMSgE416b1j--13">
          <mxGeometry relative="1" as="geometry" />
        </mxCell>
        <mxCell id="aNlcNVNQjMSgE416b1j--7" value="&lt;b&gt;&lt;font style=&quot;font-size: 18px;&quot;&gt;Deploy&lt;/font&gt;&lt;/b&gt;" style="rounded=1;whiteSpace=wrap;html=1;" vertex="1" parent="1">
          <mxGeometry x="300" y="640" width="120" height="60" as="geometry" />
        </mxCell>
        <mxCell id="aNlcNVNQjMSgE416b1j--12" value="&lt;b&gt;&lt;font style=&quot;font-size: 18px;&quot;&gt;Moitor&lt;/font&gt;&lt;/b&gt;" style="rounded=1;whiteSpace=wrap;html=1;" vertex="1" parent="1">
          <mxGeometry x="300" y="870" width="120" height="60" as="geometry" />
        </mxCell>
        <mxCell id="aNlcNVNQjMSgE416b1j--15" value="" style="edgeStyle=orthogonalEdgeStyle;rounded=0;orthogonalLoop=1;jettySize=auto;html=1;" edge="1" parent="1" source="aNlcNVNQjMSgE416b1j--13" target="aNlcNVNQjMSgE416b1j--12">
          <mxGeometry relative="1" as="geometry" />
        </mxCell>
        <mxCell id="aNlcNVNQjMSgE416b1j--13" value="&lt;b&gt;&lt;font style=&quot;font-size: 18px;&quot;&gt;Operate&lt;/font&gt;&lt;/b&gt;" style="rounded=1;whiteSpace=wrap;html=1;" vertex="1" parent="1">
          <mxGeometry x="300" y="760" width="120" height="60" as="geometry" />
        </mxCell>
      </root>
    </mxGraphModel>
  </diagram>
</mxfile>
